<?xml version="1.0" standalone="no"?>
<!DOCTYPE svg PUBLIC "-//W3C//DTD SVG 20010904//EN"
 "http://www.w3.org/TR/2001/REC-SVG-20010904/DTD/svg10.dtd">
<svg version="1.0" xmlns="http://www.w3.org/2000/svg"
 width="70.000000pt" height="70.000000pt" viewBox="0 0 70.000000 70.000000"
 preserveAspectRatio="xMidYMid meet">
<metadata>
Created by potrace 1.14, written by Peter Selinger 2001-2017
</metadata>
<g transform="translate(0.000000,70.000000) scale(0.100000,-0.100000)"
fill="#000000" stroke="none">
<path d="M245 691 c-54 -14 -164 -87 -165 -109 0 -7 -7 -15 -15 -18 -8 -4 -12
-10 -9 -15 3 -5 1 -9 -3 -9 -5 0 -18 -19 -29 -42 -25 -56 -28 -263 -4 -278 8
-5 11 -12 8 -16 -7 -6 1 -18 33 -52 9 -9 22 -27 28 -40 6 -12 16 -22 22 -22 6
0 27 -14 48 -30 21 -17 54 -33 74 -37 21 -3 37 -10 37 -14 0 -5 34 -9 75 -9
48 0 75 4 75 11 0 7 12 10 30 7 17 -3 30 -1 30 3 0 4 16 14 35 23 19 9 35 21
35 25 0 4 11 13 25 19 14 7 30 23 35 37 5 14 14 25 19 25 14 0 51 77 51 105 0
14 5 25 10 25 6 0 10 32 10 75 0 43 -4 75 -10 75 -5 0 -10 10 -10 23 0 27 -37
99 -56 110 -8 4 -14 13 -14 18 0 13 -26 39 -39 39 -5 0 -14 6 -18 14 -20 33
-97 59 -188 62 -49 2 -103 0 -120 -5z"/>
</g>
</svg>
